<?xml version="1.0" encoding="utf-8"?>
<!-- Generator: Adobe Illustrator 25.2.1, SVG Export Plug-In . SVG Version: 6.00 Build 0)  -->
<svg version="1.1" xmlns="http://www.w3.org/2000/svg" xmlns:xlink="http://www.w3.org/1999/xlink" x="0px" y="0px"
	 viewBox="0 0 512 512" style="enable-background:new 0 0 512 512;" xml:space="preserve">
<style type="text/css">
	.st0{display:none;}
	.st1{display:inline;fill:#303030;}
	.st2{fill:#FCAD34;}
	.st3{fill:#F47320;}
	.st4{fill:#F15524;}
	.st5{fill:#E35120;}
	.st6{fill:#F48221;}
	.st7{fill:#333333;}
	.st8{fill:#E6E6E6;}
	.st9{fill:#231F20;}
	.st10{fill:#F2F2F2;}
	.st11{fill:#F79645;}
	.st12{display:inline;}
	.st13{fill:#FFFFFF;}
</style>
<g id="Layer_3" class="st0">
	<rect class="st1" width="512" height="512"/>
</g>
<g id="Layer_1">
	<polygon class="st2" points="127.8,364 127.8,17.4 257.8,147.4 387.8,17.4 387.8,364.1 257.8,494.1 	"/>
	<polygon class="st3" points="214.4,190.7 127.8,147.4 127.8,125.7 173.5,95.2 	"/>
	<polygon class="st3" points="301.1,190.7 387.8,147.4 387.8,125.7 342,95.2 	"/>
	<polygon class="st4" points="214.4,190.7 149.4,39.1 257.8,147.4 	"/>
	<polygon class="st4" points="301.1,190.7 257.8,147.4 366.1,39.1 	"/>
	<polygon class="st5" points="257.8,147.4 257.8,255.7 214.4,190.7 	"/>
	<polygon class="st6" points="387.8,147.4 387.8,364.1 322.8,277.4 	"/>
	<polygon class="st6" points="127.8,147.4 192.8,277.4 127.8,364 	"/>
	<polygon class="st7" points="127.8,17.4 192.8,82.4 127.8,125.7 	"/>
	<polygon class="st7" points="387.8,17.4 322.8,82.4 387.8,125.7 	"/>
	<polygon class="st8" points="366.1,60.7 366.1,147.4 322.8,169.1 	"/>
	<polygon class="st8" points="149.4,60.7 149.4,147.4 192.8,169.1 	"/>
	<polygon class="st9" points="149.4,39.1 192.8,82.4 173.5,95.2 	"/>
	<polygon class="st9" points="366.1,39.1 342,95.2 322.8,82.4 	"/>
	<polygon class="st7" points="257.8,494.1 236.1,429.1 279.4,429.1 	"/>
	<polygon class="st9" points="301.1,450.7 257.8,494.1 279.4,429.1 	"/>
	<polygon class="st9" points="214.4,450.7 236.1,429.1 257.8,494.1 	"/>
	<polygon class="st7" points="192.8,255.7 149.4,234.1 171.1,277.4 	"/>
	<polygon class="st7" points="236.1,277.4 214.4,299.1 192.8,255.7 	"/>
	<polygon class="st10" points="192.8,234.1 171.1,277.4 214.4,299.1 	"/>
	<polygon class="st10" points="171.1,277.4 192.8,320.7 214.4,299.1 	"/>
	<polygon class="st7" points="322.8,255.7 366.1,234.1 344.4,277.4 	"/>
	<polygon class="st7" points="279.4,277.4 301.1,299.1 322.8,255.7 	"/>
	<polygon class="st10" points="322.8,234.1 344.4,277.4 301.1,299.1 	"/>
	<polygon class="st10" points="344.4,277.4 322.8,320.7 301.1,299.1 	"/>
	<polygon class="st3" points="301.1,190.7 257.8,255.7 257.8,147.4 	"/>
	<polygon class="st11" points="257.8,299.1 171.1,407.4 192.8,429 257.8,429 	"/>
	<polygon class="st5" points="344.4,407.4 322.8,429.1 257.8,429 257.8,299.1 	"/>
	<polygon class="st3" points="257.8,299.1 236.1,429.1 279.4,429.1 	"/>
	<polygon class="st10" points="236.1,429.1 127.8,364 214.4,450.7 	"/>
	<polygon class="st10" points="387.8,364.1 279.4,429.1 301.1,450.7 	"/>
	<polygon class="st5" points="149.4,255.7 127.8,364 127.8,147.4 	"/>
	<polygon class="st4" points="366.1,255.7 387.8,364.1 387.8,147.4 	"/>
</g>
<g id="Layer_2" class="st0">
	<g class="st12">
		<g>
			<path class="st13" d="M7.6,138.5c4.9,16.7,14.8,31.6,18.4,48.7c1,4.8,1.5,9.7,1.2,14.6c1.1-0.2,2.2-0.3,3.4-0.5
				c-1.9-8.7-2.9-17.7-2.5-26.5c0.4-7.2,2-16.4,8.7-20.4c2.7-1.7,6.2-2,8.3,0.9c2.1,2.8,2.5,6.9,2.9,10.3c0.8,7.8-0.2,16.2-4.6,22.9
				c-4.3,6.6-11.9,11.1-19.9,10.6c-2.2-0.2-2.2,3.2,0,3.4c8.1,0.7,16-3.6,21.1-9.8c5.7-7,7.6-16.3,7-25.1
				c-0.5-7.2-2.4-19.2-12.3-17.6c-8.7,1.4-12.8,11.4-14,19.1c-0.8,5.3-0.8,10.7-0.5,16c0.4,5.8,1.2,11.6,2.4,17.3
				c0.4,2,3.3,1.4,3.4-0.5c1-17.9-7.6-34.2-14.7-50.1c-2-4.6-3.9-9.2-5.5-13.9C10,135.8,7.1,136.5,7.6,138.5L7.6,138.5z"/>
		</g>
	</g>
	<g class="st12">
		<g>
			<path class="st13" d="M55.8,142.9c2.2,6.3,4.3,12.7,6.5,19c1.6,4.6,3.1,10.1,7.5,12.8c4.5,2.7,9.4,0.1,12-3.9
				c3.1-4.8,3.8-11.2,3.7-16.8c-0.1-7.2-1.7-14.3-3.3-21.3c-1,0.4-2,0.9-3,1.3c8.6,11.6,10.5,26.4,11.5,40.4
				c1.2,15.7,2.6,32.7-4.2,47.4c-1.5,3.3-3.4,6.5-5.8,9.3c-2.1,2.4-5,4.9-8.4,4.8c-6.3-0.3-7.5-8.9-7.6-13.7
				c0-7.4,2.2-14.7,6.3-20.9c0.8-1.2,1.8-2.9,3.4-3.2c1.4-0.2,2.7,0.7,3.7,1.5c2.7,1.9,4.8,4.3,8,5.3c6.6,2,13.7-0.9,18-6
				c4.8-5.7,6.6-13,7.2-20.3c0.2-2,0.2-4,0.2-6c0-1.4-2.4-1.9-2.6-0.3c-1.2,7.9-1.4,16.1-6,22.9c-3.8,5.6-11.4,9.5-17.9,6
				c-2.9-1.6-5-4.5-8.2-5.7c-3.6-1.3-6.4,1-8.3,3.8c-4.4,6.4-6.9,14-7.1,21.8c-0.2,6,0.9,14.1,6.8,17.3c7.1,3.9,13.9-2.8,17.6-8.3
				c9.6-14.1,9.7-32,8.7-48.3c-1-15.1-1.8-31.2-9.5-44.6c-0.9-1.6-1.9-3.1-3-4.6c-1.1-1.5-3.5-0.7-3,1.3c2.4,10.5,5.3,22.4,1.2,32.8
				c-1.3,3.3-4.6,7.6-8.5,5.4c-3.7-2-5-7.3-6.3-10.9c-2.2-6.3-4.4-12.7-6.6-19C58.3,140.1,55.2,140.9,55.8,142.9L55.8,142.9z"/>
		</g>
	</g>
	<g class="st12">
		<g>
			<path class="st13" d="M3.6,470c4.1-0.7,8.1-2.1,12.1-3.2c3.8-1.1,7.7-2.1,11.5-3.2c7.7-2.2,15.4-4.3,23.1-6.5
				c15.5-4.4,31.1-8.7,46.6-13.1c4.3-1.2,8.7-2.4,13-3.6c2.2-0.6,4.5-1.3,6.7-1.9c2.2-0.6,4.4-1.2,6.5-2.3c1.2-0.6,0.7-2.7-0.7-2.6
				c-2,0.1-3.8,0.7-5.8,1.2c-2.1,0.6-4.2,1.1-6.3,1.7c-3.9,1.1-7.7,2.2-11.5,3.2c-7.7,2.2-15.4,4.3-23.1,6.5
				c-15.5,4.4-31.1,8.7-46.6,13.1c-4.3,1.2-8.6,2.4-13,3.7c-4.4,1.3-9.1,2.2-13.4,3.9C0.8,467.6,1.6,470.3,3.6,470L3.6,470z"/>
		</g>
	</g>
	<g class="st12">
		<g>
			<path class="st13" d="M67.9,449c-1.4,3.7-2.8,7.4-4.6,10.9c-1.9,3.5-3.9,6.9-6,10.3c-4.2,7.1-8,14.4-11.2,22
				c-1.9,4.3-3.6,8.7-5.1,13.2c1.1,0.3,2.3,0.6,3.4,0.9c0.4-2.4,1.2-4.7,1.4-7.1c0.1-1-1.3-1.5-2-0.8c-1.8,1.9-2.4,4.5-2.8,7
				c-0.3,2.2,2.6,3.1,3.4,0.9c2.7-7.9,6-15.6,9.7-23.1c3.6-7.2,8-13.9,11.7-21.1c2-3.8,4.1-8.1,4.9-12.4
				C71,447.9,68.5,447.2,67.9,449L67.9,449z"/>
		</g>
	</g>
	<g class="st12">
		<g>
			<path class="st13" d="M105.3,455.6c0.9-2.8-0.8-5.7-3.3-7c-2.9-1.5-6.2-0.7-9,0.8c-2.8,1.5-5.3,3.5-7.7,5.4
				c-2.4,1.9-4.6,4-6.5,6.4c-3.9,4.7-6.7,10.2-7.5,16.3c-0.7,5.5,0.4,11.5,3.7,16c3.6,4.9,9.2,7.7,15.2,8.2
				c6.3,0.5,12.6-1.7,17.7-5.3c9.6-6.8,17.5-20,11.2-31.6c-3-5.6-8.7-9.2-14.4-11.6c-3.1-1.3-6.7-2.8-10.2-2.8c-3.4,0-6.7,1.9-7,5.6
				c-0.1,1.8,2.3,1.8,2.8,0.4c1-2.4,4.1-2.6,6.2-2.1c2.4,0.6,4.9,1.5,7.2,2.5c4.2,1.9,8.5,4.4,11.2,8.2c6.3,8.9,1,19.8-6.2,26.3
				c-7.4,6.7-19.3,10.2-27.9,3.4c-7.8-6.1-7.5-17.9-3.1-25.9c2.8-5.1,7-9.3,11.6-12.8c2.4-1.8,5-3.9,7.9-4.6c2.1-0.5,6,0.7,5.3,3.6
				C102.1,456.6,104.8,457.3,105.3,455.6L105.3,455.6z"/>
		</g>
	</g>
	<g class="st12">
		<g>
			<path class="st13" d="M342.3,441.5c-1.9,3.8-3.4,7.7-5.3,11.5c-1.9,3.9-3.8,7.7-5.8,11.5c-4,7.5-8.4,14.8-13.2,21.9
				c-1.3,1.9-2.6,3.9-4,5.8c-1.4,2-3.1,3.9-4.3,6.1c-0.9,1.6,1.3,3.4,2.6,2c1.5-1.6,2.7-3.5,3.9-5.2c1.2-1.7,2.4-3.4,3.6-5.2
				c2.4-3.6,4.7-7.2,7-10.8c4.5-7.4,8.6-15.1,12.3-22.9c2.1-4.4,4.3-8.8,5.8-13.4C345.4,441.1,343,440.1,342.3,441.5L342.3,441.5z"
				/>
		</g>
	</g>
	<g class="st12">
		<g>
			<path class="st13" d="M335.9,445.1c8.8,0.4,17.5,0.4,26.3,0.3c4.3-0.1,8.6-0.1,12.9-0.3c2.1-0.1,4.3-0.1,6.4-0.2
				c1,0,2-0.2,2.9-0.1c0.6,0.1,1.1,0.3,1.6,0.5c0.6,0.2,1.2-0.3,1.4-0.8c0.7-1.8-1.4-3-2.9-3.1c-2.1-0.2-4.4,0.1-6.6,0.2
				c-4.6,0.2-9.3,0.3-13.9,0.4c-9.4,0.2-18.9,0.1-28.3,0C333.9,442,333.9,445,335.9,445.1L335.9,445.1z"/>
		</g>
	</g>
	<g class="st12">
		<g>
			<path class="st13" d="M321.2,476.4c7.2,0.4,14.2-1.9,21.2-2.8c3.5-0.4,7-0.7,10.6-0.9c1.8-0.1,3.5-0.1,5.3-0.2
				c1.8,0,3.8,0.2,5.4-0.8c0.8-0.4,0.8-1.6,0-2c-1.5-0.9-3.5-0.7-5.2-0.7c-1.8,0-3.5,0.1-5.3,0.2c-3.6,0.2-7.2,0.5-10.8,1
				c-7.1,1-14.1,3.3-21.2,3.6C319.5,473.9,319.6,476.3,321.2,476.4L321.2,476.4z"/>
		</g>
	</g>
	<g class="st12">
		<g>
			<path class="st13" d="M397.5,462c1.1-2.3,0.3-4.9-1.6-6.5c-2.3-1.9-5.5-1.6-8.2-0.9c-4.8,1.2-9.3,3.7-13,7
				c-3.8,3.4-6.7,7.6-8.5,12.3c-2,5.1-2.9,11.3-0.8,16.5c3.6,9.2,14.5,13.2,23.6,11.2c5.2-1.2,9.9-4.1,13.8-7.7
				c3.9-3.6,7.9-8.4,9.4-13.6c0.9-3,0.7-6.3-0.9-9.1c-1.5-2.6-4-4.6-6.5-6.1c-2.9-1.8-6-3.3-9.2-4.6c-3.3-1.3-6.7-2.7-10.3-2.9
				c-1.4-0.1-2,2.1-0.7,2.7c2.5,1.1,5.1,1.8,7.7,2.7c2.4,0.9,4.8,1.9,7.1,3.1c3.8,1.9,8.7,4.5,9.6,9c0.9,4.6-2.6,9.3-5.4,12.6
				c-2.9,3.5-6.4,6.4-10.4,8.5c-7.2,3.6-16.4,2.9-22.1-3.2c-6.1-6.7-3-17.5,1.7-24.1c2.7-3.8,6.3-6.9,10.4-9c2.1-1.1,4.5-2,6.9-2.4
				c1.3-0.2,2.8-0.3,3.9,0.5c0.7,0.5,1.4,1.5,0.9,2.4C393.9,462.2,396.6,463.8,397.5,462L397.5,462z"/>
		</g>
	</g>
	<g class="st12">
		<g>
			<path class="st13" d="M403.8,445.7c0.6,0.6,1.1,0.9,2,0.9c0.9,0,1.8-0.1,2.7-0.2c1.8-0.1,3.6-0.2,5.4-0.3
				c3.5-0.2,7.1-0.4,10.6-0.6c3.5-0.2,7.1-0.4,10.6-0.6c1.6-0.1,3.3-0.3,4.9-0.3c1.6,0,2,1.2,2.7,2.4c6.1,10.4,13.6,19.9,22.3,28.3
				c4.9,4.7,10.2,9.3,15.9,13.1c0.6,0.4,1.8,0.3,2.3-0.3c0.6-0.8,1.2-1.5,1.6-2.5c0.5-1.3-0.7-3.1-2.1-2.1c-0.8,0.6-1.5,1.1-2.1,1.9
				c0.8-0.1,1.5-0.2,2.3-0.3c-4.9-3.7-9.7-7.4-14.2-11.6c-4.5-4.2-8.7-8.7-12.5-13.5c-3.8-4.8-7.3-9.8-10.4-15.1
				c-0.7-1.2-1.4-2.5-2.7-3.2c-1.4-0.8-3-0.7-4.5-0.6c-3.6,0.2-7.2,0.4-10.9,0.6c-4.1,0.2-8.2,0.5-12.3,0.7c-2,0.1-3.9,0.2-5.9,0.4
				c-1,0.1-2,0.1-3,0.2c-1.2,0.1-1.9,0.2-2.7,1.1C403.4,444.6,403.3,445.3,403.8,445.7L403.8,445.7z"/>
		</g>
	</g>
	<g class="st12">
		<g>
			<path class="st13" d="M479.8,437.1c-15.4,16.6-31.7,32.1-49.6,46c-5.1,3.9-10.3,7.7-15.5,11.4c-0.8,0.5-1.1,1.4-0.8,2.3
				c0.3,0.8,1.3,1.4,2.2,1.1c2.4-0.9,4.8-1.7,6.9-3.2c0.9-0.6,0.7-2.5-0.6-2.4c-2.5,0.3-4.8,1.2-7.2,2c0.5,1.1,0.9,2.2,1.4,3.4
				c18.9-12.8,36.5-27.9,52.5-44.2c4.5-4.6,8.9-9.3,13.1-14.2C483.3,437.8,481.2,435.6,479.8,437.1L479.8,437.1z"/>
		</g>
	</g>
	<g class="st12">
		<g>
			<path class="st13" d="M127,461c-1.2,10.9-1.4,22.1-1.2,33.1c0,2.3,3.6,2.3,3.6,0c0.2-5.7,0.9-11.4,2.3-16.9
				c1.1-4.6,2.6-9.3,5-13.4c1.1-1.9,2.4-3.6,4-5.2c0.8-0.7,1.6-1.4,2.4-2c0.8-0.5,2-1.4,3.1-1.5c1.7-0.2,1.8,3.9,1.9,5
				c0.4,2.9,0.7,5.9,1,8.8c0.6,6.7,0.9,13.5,0.9,20.2c0,2,3.3,2.6,3.7,0.5c2-13.1,4.4-27.6,14.1-37.5c-1-0.3-2.1-0.6-3.1-0.8
				c1.2,6,2.4,11.9,3.7,17.9c1,5.1,1.9,10.3,3.8,15.2c1.7,4.4,4.3,8.5,8.4,11.2c3.5,2.3,7.9,3.4,12.1,3.2c4.8-0.2,9.8-1.9,12.9-5.7
				c1-1.2-0.3-3.6-1.9-2.4c-2.9,2.2-6.3,4-10,4.3c-3.7,0.4-7.5-0.3-10.7-2.3c-7.9-4.8-9.1-15.6-10.8-23.8
				c-1.3-6.2-2.5-12.4-3.8-18.6c-0.3-1.4-2.2-1.8-3.1-0.8c-10.3,10.3-13,25.3-15.1,39.1c1.2,0.2,2.4,0.3,3.7,0.5
				c0-6.8-0.3-13.5-0.9-20.2c-0.3-3.3-0.7-6.6-1.1-9.8c-0.3-2.5-0.6-5.6-2.9-7.1c-2.5-1.5-5.4,0-7.5,1.4c-2.1,1.4-3.9,3.1-5.4,5
				c-3.2,4.1-5.3,9.1-6.8,14.1c-2.1,7-3.2,14.3-3.4,21.6c1.2,0,2.4,0,3.6,0c-0.3-11.1,0.3-22,0.8-33.1
				C130.3,458.9,127.2,459,127,461L127,461z"/>
		</g>
	</g>
</g>
</svg>
